<svg width="33" height="33" viewBox="0 0 33 33" fill="none" xmlns="http://www.w3.org/2000/svg">
<g clip-path="url(#clip0_204_45)">
<path d="M32.6681 16.8988C32.6681 8.00683 25.5041 0.798828 16.6681 0.798828C7.82806 0.800828 0.664062 8.00683 0.664062 16.9008C0.664062 24.9348 6.51606 31.5948 14.1641 32.8028V21.5528H10.1041V16.9008H14.1681V13.3508C14.1681 9.31683 16.5581 7.08883 20.2121 7.08883C21.9641 7.08883 23.7941 7.40283 23.7941 7.40283V11.3628H21.7761C19.7901 11.3628 19.1701 12.6048 19.1701 13.8788V16.8988H23.6061L22.8981 21.5508H19.1681V32.8008C26.8161 31.5928 32.6681 24.9328 32.6681 16.8988Z" fill="white"/>
</g>
<defs>
<clipPath id="clip0_204_45">
<rect width="32" height="32" fill="white" transform="translate(0.667969 0.800781)"/>
</clipPath>
</defs>
</svg>
