<?xml version="1.0" encoding="utf-8" ?>
<svg xmlns="http://www.w3.org/2000/svg" xmlns:xlink="http://www.w3.org/1999/xlink" width="1024" height="1024">
	<path transform="scale(2 2)" d="M82.9827 208.181C86.1822 183.724 105.131 186.458 123.044 186.458L162.047 186.472C178.583 186.457 175.31 186.973 190.07 179.606C194.377 177.456 198.784 175.517 203.129 173.446L278.909 136.465C285.351 133.365 296.652 126.729 303.245 125.298C322.125 124.169 317.929 144.679 317.931 156.996L317.925 202.108C321.89 202.659 325.638 204.193 329.129 206.119C363.15 224.901 356.387 274.048 317.925 284.664L317.926 334.45C317.928 341.406 319.502 356.86 315.107 361.409C306.05 370.783 292.307 359.686 283.007 355.193L186.859 308.115C175.924 302.705 176.371 302.986 163.988 302.993L147.286 303.015L147.286 371.812C147.352 388.551 135.254 387.198 122.331 387.252C106.026 387.319 99.5589 387.59 99.6676 367.651L99.7043 302.154C89.972 299.563 83.8609 291.149 82.9827 281.26L73.6515 281.288C51.3481 281.355 52.0452 271.316 52.0488 252.274L51.999 226.016C51.9642 211.576 60.0011 208.159 73.0205 208.162L82.9827 208.181ZM304.42 135.521C300.263 137.033 296.275 139.297 292.309 141.262L189.728 191.195C175.938 197.931 178.49 196.652 163.298 196.627L129.376 196.638C123.365 196.636 105.24 195.911 100.63 197.497C91.8438 200.521 93.2005 211.625 93.2333 218.919L93.2374 265.344C93.2361 275.63 90.621 291.53 105.156 292.723C111.007 293.203 117.157 292.806 123.038 292.806L158.593 292.817C176.141 292.769 175.596 291.064 190.874 298.554L291.95 348.021C294.227 349.13 304.819 355.364 307.014 354.566C308.747 352.166 307.695 305.975 307.695 299.321L307.667 143.17C307.688 140.191 308.981 134.993 304.42 135.521ZM317.925 212.585L317.925 274.015C323.658 272.085 327.885 269.307 332.144 265.022C348.951 246.979 340.387 220.083 317.925 212.585ZM71.9585 218.053C69.1233 218.129 65.4549 217.736 63.3155 219.954C60.6968 222.669 61.7105 256.431 61.8881 261.977C62.1651 270.625 65.05 271.296 73.125 271.224L82.9827 271.224L82.9827 218.053L71.9585 218.053ZM109.665 303.015C109.529 311.741 109.478 375.271 110.112 375.905C111.947 377.741 132.8 378.622 135.916 376.356C137.966 373.875 137.054 367.974 137.056 364.953L137.051 303.015C127.932 303.186 118.787 303.009 109.665 303.015Z"/>
	<path transform="scale(2 2)" d="M412.393 340.364C408.459 340.213 404.456 336.474 407.126 332.604C408.95 329.961 414.542 325.51 417.16 322.859C462.29 277.179 459.818 201.568 413.642 157.185C410.435 154.102 399.336 145.107 410.872 142.555C415.728 143.029 424.916 153.479 428.469 157.459C473.485 207.885 469.192 286.916 421.36 333.376C418.728 335.932 415.793 338.895 412.393 340.364Z"/>
	<path transform="scale(2 2)" d="M392.681 317.681C389.527 317.7 386.289 315.393 386.652 311.933C386.939 309.209 392.92 304.714 394.918 302.773C428.139 270.5 426.828 214.37 394.918 181.01C391.288 177.215 380.039 169.304 390.286 165.301C395.218 164.922 399.088 170.306 402.084 173.522C430.623 204.159 438.879 248.172 419.286 286.212C414.963 294.605 401.574 314.838 392.681 317.681Z"/>
	<path transform="scale(2 2)" d="M372.921 295.479C368.829 295.654 364.726 292.135 367.191 287.851C368.645 285.324 371.728 283.394 373.821 281.373C394.382 261.516 393.785 225.986 376.437 204.429C373.312 200.546 359.87 192.981 370.269 187.754C378.672 187.086 389.317 204.261 392.605 210.795C402.614 230.688 402.356 255.282 391.414 274.703C387.799 281.119 379.437 292.212 372.921 295.479Z"/>
	<path transform="scale(2 2)" d="M177.476 282.722C172.033 283.356 170.959 279.776 170.817 275.404C170.58 268.165 170.262 211.101 171.202 208.508C171.769 206.945 172.795 206.234 174.239 205.528C177.087 205.282 178.933 206.246 181.006 208.181C181.284 210.729 181.035 213.428 181.025 215.997L181.009 231.234C181 246.32 181.269 261.447 181.073 276.527C181.031 279.749 180.571 281.267 177.476 282.722Z"/>
	<path transform="scale(2 2)" d="M159.662 232.317C153.247 232.83 116.323 232.738 114.172 231.775C109.492 229.679 110.447 223.935 115.962 222.21C121.086 222.064 157.867 221.668 160.553 222.568C165.619 224.265 163.415 230.544 159.662 232.317Z"/>
	<path transform="scale(2 2)" d="M159.662 266.849L130.265 266.844C126.222 266.842 112.133 268.919 111.168 262.938C110.624 259.565 112.765 257.077 115.962 256.608C124.666 256.381 133.43 256.625 142.141 256.632C146.226 256.636 161.301 254.617 163.137 259.366C164.237 262.213 162.627 265.997 159.662 266.849Z"/>
</svg>
